<?xml version="1.0" encoding="UTF-8"?>
<svg id="Capa_1" data-name="Capa 1" xmlns="http://www.w3.org/2000/svg" viewBox="0 0 1920 1741.23">
  <defs>
    <style>
      .cls-1 {
        fill: #050006;
      }
    </style>
  </defs>
  <path id="O" class="cls-1" d="M1900.96,1039.66c-63.74,371.7-479.49,699.54-889.66,701.56-509.75-7.35-752.71-224.02-1000.23-595.73-9.72-14.46-13.19-31.79-9.81-48.95,3.47-17.16,13.36-32.04,28.07-41.76,29.84-19.95,70.42-11.83,90.54,18.01,228.84,343.55,438.83,530.97,892.11,537.73,350.82-1.86,706.21-279.05,759.98-593.11,56.47-329.1-29.25-596.4-241.27-752.62-211.17-155.46-525.9-178.88-765.3-56.89-201.87,102.8-312.11,286.83-310.42,518.29,1.44,221.74,86.57,393.26,239.58,483.04,161.72,94.85,380.67,88.59,571.46-16.32,196.38-108.46,233.83-340.6,169.33-513.98-51.74-138.47-181.92-270.52-391.99-225.88-103.47,25.87-193,108.12-227.4,209.4-31.02,91.81-12.43,187.08,52.5,268.06,46.24,57.82,123.25,63.74,179.89,50.05,64.5-15.72,112.43-56.98,122.15-105.16,11.41-47.76,12.77-108.63-45.14-131.12-20.12-7.86-39.14-7.78-51.99-5.75.08.08.17.17.25.25,24.77,26.63,23.42,67.12-3.04,92.31-26.38,24.68-67.8,23.42-92.48-2.79-65.43-69.83-46.24-135.51-24.43-163.66,43.79-60.1,145.49-76.34,231.71-36.94,99.58,45.82,142.78,151.32,112.94,275.5-19.87,98.23-103.81,176.51-219.29,204.41-122.15,29.76-242.03-6.85-312.7-95.44-93.58-117-119.96-256.06-74.14-391.74,48.1-142.53,174.48-258.17,321.83-294.69,241.77-51.48,454.97,69.32,543.9,307.71,84.11,226.13,32.46,530.29-228.92,673.92-230.78,127.14-499.27,132.72-700.63,14.71-194.52-114.04-302.55-325.38-304.41-594.96-.93-149.38,39.48-289.2,116.91-404.34,32.72-48.61,71.35-92.4,115.65-131.12,44.3-38.63,94.26-72.28,149.54-100.43,281.34-143.54,652.28-115.48,902,68.22,254.2,187.16,358.26,499.78,292.92,880.19Z"/>
</svg>